<svg xmlns="http://www.w3.org/2000/svg" width="1024" height="1024" viewBox="0 0 1024 1024" role="img" aria-labelledby="title desc">
  <title id="title">知记空间 Logo</title>
  <desc id="desc">A dark rounded app icon with a note page and a blue orbit, representing local notes, search, and connected knowledge.</desc>
  <defs>
    <linearGradient id="ink" x1="242" y1="202" x2="782" y2="742" gradientUnits="userSpaceOnUse">
      <stop offset="0" stop-color="#172837"/>
      <stop offset="1" stop-color="#07131c"/>
    </linearGradient>
    <linearGradient id="paper" x1="340" y1="310" x2="682" y2="654" gradientUnits="userSpaceOnUse">
      <stop offset="0" stop-color="#ffffff"/>
      <stop offset="1" stop-color="#e8f4f8"/>
    </linearGradient>
    <linearGradient id="orbit" x1="110" y1="216" x2="914" y2="808" gradientUnits="userSpaceOnUse">
      <stop offset="0" stop-color="#47c9ff"/>
      <stop offset="1" stop-color="#1f6eea"/>
    </linearGradient>
  </defs>

  <g transform="translate(170 170) scale(3.1)">
    <rect width="220" height="220" rx="54" fill="url(#ink)"/>
    <path d="M63 54H146L183 91V164C183 175 174 184 163 184H63C52 184 43 175 43 164V74C43 63 52 54 63 54Z" fill="url(#paper)"/>
    <path d="M146 54V91H183" fill="#d8eaf3"/>
    <path d="M73 113H144M73 140H152" fill="none" stroke="#1e76b8" stroke-width="12" stroke-linecap="round"/>
    <ellipse cx="110" cy="110" rx="130" ry="70" fill="none" stroke="url(#orbit)" stroke-width="10" stroke-linecap="round" transform="rotate(-25 110 110)"/>
    <circle cx="217" cy="54" r="11" fill="#f3a63f"/>
    <circle cx="18" cy="166" r="9" fill="#47c9ff"/>
  </g>
</svg>
